<svg width="74" height="60" viewBox="0 0 74 60" fill="none" xmlns="http://www.w3.org/2000/svg">
<circle cx="55.5" cy="17.5" r="12.5" fill="#BC862F"/>
<circle cx="61.5" cy="12.5" r="12.5" fill="#2A2A2A"/>
<path d="M52.7 27.9395C50.5915 25.3854 47.6892 23.61 44.455 22.8962C43.7183 19.6095 42.4433 16.7762 40.5733 14.4245C40.5167 14.3395 40.46 14.2545 40.4033 14.1979C34.17 6.6612 23.97 6.68953 17.085 10.5995C11.1917 13.9712 6.17667 21.0829 8.81167 31.2262C2.77667 32.6995 0 37.9695 0 42.7295C0 48.0562 3.485 54.0345 11.2483 54.6012H40.6583C44.6817 54.6012 48.535 53.0995 51.51 50.3795C58.6217 44.0895 57.6867 33.8329 52.7 27.9395Z" fill="#404040"/>
<path d="M56.4656 38.0673C54.7666 36.0091 52.4279 34.5785 49.8218 34.0033C49.2282 31.3549 48.2008 29.0719 46.694 27.1769C46.6483 27.1084 46.6026 27.0399 46.557 26.9942C41.5342 20.9212 33.315 20.944 27.7671 24.0947C23.0182 26.8116 18.9772 32.5422 21.1004 40.7156C16.2374 41.9029 14 46.1494 14 49.985C14 54.2772 16.8082 59.0946 23.0639 59.5512H46.7624C50.0044 59.5512 53.1095 58.3412 55.5067 56.1494C61.2373 51.0809 60.4839 42.8161 56.4656 38.0673Z" fill="#5B5B5B"/>
</svg>
